{"title":"Karate.Kids.CAMRIP.XVID.FEEL-FREE","uid":5643161,"size":1350988701,"categoryP":"video","categoryS":"movies","magnet":"?xt=urn:btih:ad0659f42e7101f2cd72803bf2f96678257a1dd3&amp;dn=Karate.Kids.CAMRIP.XVID.FEEL-FREE&amp;tr=udp%3A%2F%2Ftracker.openbittorrent.com%3A80&amp;tr=udp%3A%2F%2Fopen.demonii.com%3A1337&amp;tr=udp%3A%2F%2Ftracker.coppersurfer.tk%3A6969&amp;tr=udp%3A%2F%2Fexodus.desync.com%3A6969","seeders":0,"leechers":0,"uploader":"raymondhome","files":-1,"time":1277196433,"description":"Love for All and Sharing is the first step to solving all the problems of humanity.\n\nWebsites I want to share.\n\n    &lt;a href=&quot;\nhttp://www.shareintl.org/&quot; rel=&quot;nofollow&quot; target=&quot;_NEW&quot;&gt;\nhttp://www.shareintl.org/&lt;/a&gt;\n\n    &lt;a href=&quot;\nhttp://www.lightmiddleway.com&quot; rel=&quot;nofollow&quot; target=&quot;_NEW&quot;&gt;\nhttp://www.lightmiddleway.com&lt;/a&gt;\n\n\nThank you very much\n\nNo credit for me...credit to EVERYONE for sharing\n &lt;a href=&quot;\nhttp://thepiratebay.se/user/raymondhome/&quot; rel=&quot;nofollow&quot; target=&quot;_NEW&quot;&gt;\nhttp://thepiratebay.se/user/raymondhome/&lt;/a&gt;\n\nPLOT\nWork causes a single mother to move to China with her young son; in his new home, the boy embraces kung fu, taught to him by a master.\n\nLanguage:English\nSource Video:Karate.patsan.2010.L.RUS.CAMRip.Thanks.\nSource Audio:DVDR.VOBS.Thanks.\nEncoder: Tony2\n.........................................\nVideo\nCodec ID : xvid\nWidth : 704 pixels\nHeight : 304 pixels\nDisplay aspect ratio : 2.35:1\nFrame rate : 29.970 fps\nResolution : 24 bits\nBits/(Pixel*Frame) : 0.078\nStream size : 1.12 GiB (89%)\n.........................................\nAudio\nID : 1\nFormat : MPEG Audio\nFormat version : Version 1\nFormat profile : Layer 3\nFormat settings, Mode : Joint stereo / MS Stereo\nCodec ID : 55\nCodec ID/Hint : MP3\nDuration : 2h 13mn\nBit rate mode : Constant\nBit rate : 128 Kbps\nChannel(s) : 2 channels\nSampling rate : 48.0 KHz\nResolution : 16 bits\nStream size : 123 MiB (10%)\nAlignment : Aligned on interleaves\nInterleave, duration : 24 ms (0.72 video frame)\n\ncredit FEEL-FREE &amp; pitic BIG BIG BIG TIME &amp; to all the people who made it possible for us to share this...especially EVERYONE involve in the production of the movie...IF YOU LIKE IT...BUY IT :)\n\n*****help what we can with others in need...the world is ONE big family*****","torrent":{"xt":"urn:btih:ad0659f42e7101f2cd72803bf2f96678257a1dd3","amp;dn":"Karate.Kids.CAMRIP.XVID.FEEL-FREE","amp;tr":["udp%3A%2F%2Ftracker.openbittorrent.com%3A80","udp%3A%2F%2Fopen.demonii.com%3A1337","udp%3A%2F%2Ftracker.coppersurfer.tk%3A6969","udp%3A%2F%2Fexodus.desync.com%3A6969"],"infoHash":"ad0659f42e7101f2cd72803bf2f96678257a1dd3","infoHashBuffer":{"type":"Buffer","data":[173,6,89,244,46,113,1,242,205,114,128,59,242,249,102,120,37,122,29,211]},"announce":[],"urlList":[]}}